<?xml version="1.0" encoding="UTF-8" standalone="no"?>
<!DOCTYPE svg PUBLIC "-//W3C//DTD SVG 1.1//EN" "http://www.w3.org/Graphics/SVG/1.1/DTD/svg11.dtd">
<svg width="100%" height="100%" viewBox="0 0 128 128" version="1.1" xmlns="http://www.w3.org/2000/svg" xml:space="preserve" style="fill-rule:evenodd;clip-rule:evenodd;stroke-linejoin:round;stroke-miterlimit:2;">
	<rect id="Logo" x="0" y="0" width="128" height="128" style="fill:none;" />
	<clipPath id="_clip1">
		<rect x="0" y="0" width="128" height="128" />
	</clipPath>
	<g clip-path="url(#_clip1)">
		<path d="M64,0l55.426,32l-0,64l-55.426,32l-55.426,-32l0,-64l55.426,-32Z" style="fill:{{ conifer.600 }};" />
		<g>
			<path d="M54.118,81.028c-1.431,0.39 -2.937,0.599 -4.491,0.599l-14.374,-0l-1.905,-4.601l9.772,-9.773l-7.867,0l-1.905,-4.601l30.652,-30.652l16.279,16.279l-3.811,3.811l-9.773,-9.772l0,7.867l0.004,0.301c0.16,6.306 5.329,11.377 11.674,11.377l14.374,0l-0,5.39l-7.867,0l9.772,9.773l-1.905,4.601l-14.374,-0c-1.554,-0 -3.06,-0.209 -4.491,-0.599l-0,14.972l-19.764,0l0,-14.972Zm9.882,-7.266c-1.183,1.843 -2.711,3.444 -4.492,4.711l0,12.137c0,-0 8.984,-0 8.984,-0l-0,-12.137c-1.781,-1.268 -3.309,-2.869 -4.492,-4.711Zm2.695,-11.135c2.791,2.622 6.463,4.315 10.522,4.586c0,0 9.023,9.024 9.023,9.024c0,-0 -7.867,-0 -7.867,-0c-6.445,-0 -11.678,-5.233 -11.678,-11.679l0,-1.931Zm-5.39,-0c-2.791,2.622 -6.463,4.316 -10.522,4.586l-9.023,9.024c-0,-0 7.867,-0 7.867,-0c6.445,-0 11.678,-5.233 11.678,-11.679l-0,-1.931Zm-0,-20.309l-19.545,19.545l7.867,0c6.445,0 11.678,-5.233 11.678,-11.678l-0,-7.867Z" style="fill:{{ conifer.900 }};" />
		</g>
	</g>
</svg>
