<?xml version="1.0" encoding="UTF-8" standalone="no"?><!DOCTYPE svg PUBLIC "-//W3C//DTD SVG 1.1//EN" "http://www.w3.org/Graphics/SVG/1.1/DTD/svg11.dtd"><svg width="100%" height="100%" viewBox="0 0 150 48" version="1.1" xmlns="http://www.w3.org/2000/svg" xmlns:xlink="http://www.w3.org/1999/xlink" xml:space="preserve" xmlns:serif="http://www.serif.com/" style="fill-rule:evenodd;clip-rule:evenodd;stroke-linejoin:round;stroke-miterlimit:2;"><rect id="Artboard2" x="-0" y="0" width="149.455" height="48" style="fill:none;"/><clipPath id="_clip1"><rect id="Artboard21" serif:id="Artboard2" x="-0" y="0" width="149.455" height="48"/></clipPath><g clip-path="url(#_clip1)"><g><path d="M15.578,36.771c-1.074,0.293 -2.203,0.449 -3.369,0.449l-10.78,-0l-1.429,-3.45l7.329,-7.33l-5.9,-0l-1.429,-3.45l22.989,-22.99l12.209,12.21l-2.858,2.858l-7.33,-7.329l0,5.9l0.003,0.225c0.12,4.73 3.997,8.533 8.756,8.533l10.78,0l0,4.043l-5.9,-0l7.329,7.33l-1.429,3.45l-10.78,-0c-1.166,-0 -2.295,-0.156 -3.369,-0.449l0,11.229l-14.822,0l-0,-11.229Zm7.411,-5.45c-0.887,1.383 -2.033,2.583 -3.369,3.534l0,9.102l6.738,0l-0,-9.102c-1.336,-0.951 -2.482,-2.152 -3.369,-3.534Zm2.021,-8.351c2.094,1.967 4.848,3.237 7.892,3.44l6.767,6.767l-5.9,0c-4.834,0 -8.759,-3.924 -8.759,-8.758l0,-1.449Zm-4.042,0c-2.094,1.967 -4.848,3.237 -7.892,3.44l-6.767,6.767l5.9,0c4.834,0 8.759,-3.924 8.759,-8.758l-0,-1.449Zm-0,-15.231l-14.659,14.658l5.9,0c4.834,0 8.759,-3.924 8.759,-8.758l-0,-5.9Z" style="fill:#dde5ed;"/></g><path d="M64.757,37.22l-0,-18.757l-6.598,-0l0,-3.881l17.464,-0l0,3.881l-6.597,-0l-0,18.757l-4.269,-0Z" style="fill:#dde5ed;fill-rule:nonzero;"/><path d="M80.862,37.673c-1.143,-0 -2.167,-0.2 -3.072,-0.599c-0.906,-0.398 -1.623,-0.981 -2.151,-1.746c-0.528,-0.765 -0.792,-1.698 -0.792,-2.797c-0,-1.1 0.264,-2.022 0.792,-2.765c0.528,-0.744 1.262,-1.305 2.199,-1.682c0.938,-0.377 2.011,-0.566 3.218,-0.566l4.398,-0l0,-0.906c0,-0.754 -0.237,-1.374 -0.711,-1.859c-0.474,-0.485 -1.229,-0.728 -2.264,-0.728c-1.013,0 -1.768,0.232 -2.264,0.696c-0.496,0.463 -0.819,1.061 -0.97,1.794l-3.751,-1.261c0.258,-0.819 0.673,-1.568 1.245,-2.247c0.571,-0.68 1.337,-1.229 2.296,-1.65c0.959,-0.42 2.129,-0.63 3.509,-0.63c2.113,-0 3.784,0.528 5.013,1.584c1.228,1.057 1.843,2.587 1.843,4.593l-0,5.982c-0,0.647 0.302,0.971 0.905,0.971l1.294,-0l0,3.363l-2.716,-0c-0.798,-0 -1.456,-0.194 -1.973,-0.582c-0.518,-0.388 -0.776,-0.906 -0.776,-1.552l-0,-0.033l-0.615,0c-0.086,0.259 -0.28,0.599 -0.582,1.019c-0.302,0.42 -0.776,0.792 -1.423,1.116c-0.647,0.323 -1.531,0.485 -2.652,0.485Zm0.712,-3.299c1.142,0 2.075,-0.318 2.797,-0.954c0.722,-0.636 1.083,-1.482 1.083,-2.539l0,-0.323l-4.107,-0c-0.754,-0 -1.347,0.162 -1.778,0.485c-0.432,0.323 -0.647,0.776 -0.647,1.358c-0,0.582 0.226,1.057 0.679,1.423c0.453,0.367 1.11,0.55 1.973,0.55Z" style="fill:#dde5ed;fill-rule:nonzero;"/><path d="M94.574,37.22l0,-16.041l4.011,0l-0,2.102l0.582,0c0.258,-0.56 0.743,-1.094 1.455,-1.6c0.711,-0.507 1.789,-0.76 3.234,-0.76c1.25,-0 2.345,0.285 3.282,0.857c0.938,0.571 1.666,1.358 2.183,2.36c0.518,1.003 0.777,2.173 0.777,3.509l-0,9.573l-4.075,-0l-0,-9.249c-0,-1.208 -0.297,-2.113 -0.89,-2.717c-0.593,-0.603 -1.439,-0.905 -2.538,-0.905c-1.251,-0 -2.221,0.415 -2.911,1.245c-0.69,0.83 -1.035,1.989 -1.035,3.476l0,8.15l-4.075,-0Z" style="fill:#dde5ed;fill-rule:nonzero;"/><path d="M114.496,37.22l-0,-16.041l4.01,0l-0,2.102l0.582,0c0.259,-0.56 0.744,-1.094 1.455,-1.6c0.712,-0.507 1.79,-0.76 3.234,-0.76c1.251,-0 2.345,0.285 3.283,0.857c0.938,0.571 1.665,1.358 2.183,2.36c0.517,1.003 0.776,2.173 0.776,3.509l0,9.573l-4.075,-0l0,-9.249c0,-1.208 -0.296,-2.113 -0.889,-2.717c-0.593,-0.603 -1.439,-0.905 -2.539,-0.905c-1.25,-0 -2.221,0.415 -2.91,1.245c-0.69,0.83 -1.035,1.989 -1.035,3.476l-0,8.15l-4.075,-0Z" style="fill:#dde5ed;fill-rule:nonzero;"/><path d="M141.726,37.673c-1.595,-0 -3.002,-0.34 -4.22,-1.019c-1.218,-0.679 -2.167,-1.639 -2.846,-2.878c-0.679,-1.24 -1.019,-2.701 -1.019,-4.382l0,-0.388c0,-1.682 0.334,-3.143 1.003,-4.382c0.668,-1.24 1.606,-2.2 2.813,-2.879c1.208,-0.679 2.609,-1.018 4.204,-1.018c1.574,-0 2.943,0.35 4.108,1.051c1.164,0.7 2.069,1.671 2.716,2.91c0.647,1.24 0.97,2.679 0.97,4.318l0,1.39l-11.674,0c0.043,1.1 0.452,1.995 1.229,2.684c0.776,0.69 1.724,1.035 2.845,1.035c1.143,0 1.984,-0.248 2.523,-0.743c0.539,-0.496 0.949,-1.046 1.229,-1.65l3.331,1.747c-0.302,0.56 -0.739,1.169 -1.31,1.827c-0.571,0.657 -1.331,1.218 -2.28,1.681c-0.948,0.464 -2.156,0.696 -3.622,0.696Zm-3.913,-10.317l7.503,0c-0.086,-0.927 -0.458,-1.671 -1.116,-2.231c-0.657,-0.561 -1.514,-0.841 -2.571,-0.841c-1.099,-0 -1.973,0.28 -2.619,0.841c-0.647,0.56 -1.046,1.304 -1.197,2.231Z" style="fill:#dde5ed;fill-rule:nonzero;"/></g></svg>